<svg width="180" height="29" viewBox="0 0 180 29" fill="none" xmlns="http://www.w3.org/2000/svg">
<g clip-path="url(#clip0_1_966)">
<path d="M14.7572 4.45854L29.1885 0.28125L24.9777 14.5001L29.1885 28.6788L14.7572 24.5416L0.285034 28.6788L4.53675 14.5001L0.285034 0.28125L14.7572 4.45854Z" fill="white"/>
</g>
<path d="M40.1099 24.9723V2.41675H49.2272C50.6266 2.41675 51.8728 2.69601 52.966 3.25453C54.0811 3.79156 54.9447 4.5649 55.5569 5.57453C56.191 6.56267 56.508 7.7549 56.508 9.15119V9.57008C56.508 10.9664 56.1801 12.1693 55.5241 13.179C54.8901 14.1886 54.0264 14.9619 52.9332 15.499C51.84 16.036 50.6047 16.3045 49.2272 16.3045H43.6519V24.9723H40.1099ZM43.6519 13.1467H48.8665C50.1127 13.1467 51.1076 12.8245 51.8509 12.1801C52.5943 11.5356 52.966 10.6549 52.966 9.53786V9.21564C52.966 8.07712 52.5943 7.18564 51.8509 6.54119C51.1076 5.89675 50.1127 5.57453 48.8665 5.57453H43.6519V13.1467Z" fill="white"/>
<path d="M67.0969 25.4234C65.4789 25.4234 64.0359 25.1012 62.7678 24.4568C61.5215 23.7908 60.5376 22.8456 59.8161 21.6212C59.0946 20.3967 58.7338 18.9468 58.7338 17.2712V16.7879C58.7338 15.1123 59.0946 13.673 59.8161 12.4701C60.5376 11.2456 61.5215 10.3005 62.7678 9.63453C64.0359 8.9686 65.4789 8.63564 67.0969 8.63564C68.7148 8.63564 70.1579 8.9686 71.426 9.63453C72.6941 10.3005 73.6889 11.2456 74.4105 12.4701C75.132 13.673 75.4927 15.1123 75.4927 16.7879V17.2712C75.4927 18.9468 75.132 20.3967 74.4105 21.6212C73.6889 22.8456 72.6941 23.7908 71.426 24.4568C70.1579 25.1012 68.7148 25.4234 67.0969 25.4234ZM67.0969 22.459C68.5836 22.459 69.7862 21.9971 70.7045 21.0734C71.6446 20.1282 72.1147 18.8286 72.1147 17.1745V16.8845C72.1147 15.2305 71.6556 13.9416 70.7373 13.0179C69.819 12.0727 68.6055 11.6001 67.0969 11.6001C65.632 11.6001 64.4294 12.0727 63.4893 13.0179C62.571 13.9416 62.1118 15.2305 62.1118 16.8845V17.1745C62.1118 18.8286 62.571 20.1282 63.4893 21.0734C64.4294 21.9971 65.632 22.459 67.0969 22.459Z" fill="white"/>
<path d="M86.3232 25.4234C84.268 25.4234 82.5626 24.9723 81.207 24.0701C79.8514 23.1679 79.0206 21.8038 78.7145 19.9779L81.8629 19.2367C82.0378 20.1175 82.333 20.8156 82.7484 21.3312C83.1638 21.8468 83.6776 22.2119 84.2898 22.4268C84.9239 22.6416 85.6017 22.749 86.3232 22.749C87.3946 22.749 88.2145 22.5449 88.7829 22.1367C89.3733 21.7286 89.6684 21.2023 89.6684 20.5579C89.6684 19.9134 89.3951 19.4408 88.8485 19.1401C88.3019 18.8393 87.493 18.5923 86.4216 18.399L85.3065 18.2056C84.2133 18.0123 83.2185 17.733 82.3221 17.3679C81.4256 17.0027 80.715 16.4979 80.1903 15.8534C79.6656 15.209 79.4032 14.3819 79.4032 13.3723C79.4032 11.8686 79.9717 10.7086 81.1086 9.8923C82.2455 9.05453 83.7542 8.63564 85.6345 8.63564C87.4492 8.63564 88.936 9.04379 90.0948 9.86008C91.2755 10.6549 92.0407 11.7397 92.3905 13.1145L89.2421 13.9845C89.0453 13.0179 88.6299 12.3412 87.9958 11.9545C87.3618 11.5464 86.5747 11.3423 85.6345 11.3423C84.7162 11.3423 83.9947 11.5142 83.4699 11.8579C82.9452 12.1801 82.6828 12.6419 82.6828 13.2434C82.6828 13.8879 82.9343 14.3605 83.4371 14.6612C83.9619 14.9619 84.6615 15.1875 85.5361 15.3379L86.684 15.5312C87.8428 15.7245 88.9032 15.993 89.8652 16.3367C90.8272 16.6805 91.5816 17.1745 92.1282 17.819C92.6966 18.4634 92.9809 19.3227 92.9809 20.3967C92.9809 21.9864 92.3796 23.2216 91.1771 24.1023C89.9745 24.983 88.3566 25.4234 86.3232 25.4234Z" fill="white"/>
<path d="M96.9292 24.9723V9.08675H100.307V24.9723H96.9292ZM98.6347 6.92786C97.9787 6.92786 97.4212 6.72379 96.962 6.31564C96.5248 5.88601 96.3061 5.33823 96.3061 4.6723C96.3061 4.00638 96.5248 3.46934 96.962 3.06119C97.4212 2.63156 97.9787 2.41675 98.6347 2.41675C99.3124 2.41675 99.87 2.63156 100.307 3.06119C100.745 3.46934 100.963 4.00638 100.963 4.6723C100.963 5.33823 100.745 5.88601 100.307 6.31564C99.87 6.72379 99.3124 6.92786 98.6347 6.92786Z" fill="white"/>
<path d="M111.388 24.9723C110.404 24.9723 109.617 24.6823 109.026 24.1023C108.458 23.5223 108.174 22.749 108.174 21.7823V11.8901H103.713V9.08675H108.174V3.83453H111.552V9.08675H116.373V11.8901H111.552V21.2023C111.552 21.8468 111.858 22.169 112.47 22.169H115.848V24.9723H111.388Z" fill="white"/>
<path d="M120.341 24.9723V9.08675H123.719V24.9723H120.341ZM122.047 6.92786C121.391 6.92786 120.833 6.72379 120.374 6.31564C119.937 5.88601 119.718 5.33823 119.718 4.6723C119.718 4.00638 119.937 3.46934 120.374 3.06119C120.833 2.63156 121.391 2.41675 122.047 2.41675C122.725 2.41675 123.282 2.63156 123.719 3.06119C124.157 3.46934 124.375 4.00638 124.375 4.6723C124.375 5.33823 124.157 5.88601 123.719 6.31564C123.282 6.72379 122.725 6.92786 122.047 6.92786Z" fill="white"/>
<path d="M132.471 24.9723L127.027 9.08675H130.602L134.898 22.5234H135.423L139.719 9.08675H143.294L137.85 24.9723H132.471Z" fill="white"/>
<path d="M152.771 25.2623C151.546 25.2623 150.453 24.9938 149.491 24.4568C148.529 23.9197 147.775 23.1571 147.228 22.169C146.681 21.1808 146.408 19.9993 146.408 18.6245V9.08675H149.786V18.399C149.786 19.7738 150.136 20.7942 150.836 21.4601C151.535 22.1045 152.508 22.4268 153.755 22.4268C155.132 22.4268 156.236 21.9756 157.067 21.0734C157.92 20.1497 158.346 18.8286 158.346 17.1101V9.08675H161.724V24.9723H158.412V22.5879H157.887C157.581 23.2323 157.034 23.8445 156.247 24.4245C155.46 24.983 154.301 25.2623 152.771 25.2623Z" fill="white"/>
<path d="M173.342 25.4234C171.287 25.4234 169.582 24.9723 168.226 24.0701C166.871 23.1679 166.04 21.8038 165.734 19.9779L168.882 19.2367C169.057 20.1175 169.352 20.8156 169.768 21.3312C170.183 21.8468 170.697 22.2119 171.309 22.4268C171.943 22.6416 172.621 22.749 173.342 22.749C174.414 22.749 175.234 22.5449 175.802 22.1367C176.392 21.7286 176.688 21.2023 176.688 20.5579C176.688 19.9134 176.414 19.4408 175.868 19.1401C175.321 18.8393 174.512 18.5923 173.441 18.399L172.326 18.2056C171.232 18.0123 170.238 17.733 169.341 17.3679C168.445 17.0027 167.734 16.4979 167.209 15.8534C166.685 15.209 166.422 14.3819 166.422 13.3723C166.422 11.8686 166.991 10.7086 168.128 9.8923C169.265 9.05453 170.773 8.63564 172.654 8.63564C174.468 8.63564 175.955 9.04379 177.114 9.86008C178.295 10.6549 179.06 11.7397 179.41 13.1145L176.261 13.9845C176.064 13.0179 175.649 12.3412 175.015 11.9545C174.381 11.5464 173.594 11.3423 172.654 11.3423C171.735 11.3423 171.014 11.5142 170.489 11.8579C169.964 12.1801 169.702 12.6419 169.702 13.2434C169.702 13.8879 169.953 14.3605 170.456 14.6612C170.981 14.9619 171.681 15.1875 172.555 15.3379L173.703 15.5312C174.862 15.7245 175.922 15.993 176.884 16.3367C177.846 16.6805 178.601 17.1745 179.147 17.819C179.716 18.4634 180 19.3227 180 20.3967C180 21.9864 179.399 23.2216 178.196 24.1023C176.994 24.983 175.376 25.4234 173.342 25.4234Z" fill="white"/>
<defs>
<clipPath id="clip0_1_966">
<rect width="29.5167" height="29" fill="white"/>
</clipPath>
</defs>
</svg>
